<svg width="33" height="32" viewBox="0 0 33 32" fill="none" xmlns="http://www.w3.org/2000/svg">
    <rect x="1.07996" y="0.5" width="31" height="31" rx="15.5" fill="#18181B" />
    <rect x="1.07996" y="0.5" width="31" height="31" rx="15.5" stroke="#484851" />
    <path d="M20.9133 14.6666L23.8467 22H22.41L21.6093 20H18.8827L18.0833 22H16.6473L19.58 14.6666H20.9133ZM15.2467 9.33331V10.6666H19.2467V12L17.9348 12.0004C17.4083 13.5774 16.5792 15.0038 15.521 16.2006C16.0029 16.6304 16.5247 17.0117 17.0783 17.3386L16.5779 18.5903C15.8625 18.1854 15.193 17.7016 14.5797 17.1499C13.3894 18.2213 11.9861 19.0368 10.4459 19.5156L10.0884 18.2294C11.4057 17.8135 12.6103 17.1158 13.6403 16.2014C12.8885 15.352 12.2525 14.3865 11.7583 13.3335L13.2512 13.3336C13.6268 14.0259 14.0732 14.6688 14.5798 15.2513C15.3989 14.31 16.0603 13.2108 16.5197 12.0007L9.91333 12V10.6666H13.9133V9.33331H15.2467ZM20.2467 16.5901L19.4153 18.6666H21.0767L20.2467 16.5901Z" fill="#F4F4F5" />
</svg>