<svg width="674" height="600" viewBox="0 0 674 712" fill="none" xmlns="http://www.w3.org/2000/svg">
<rect width="674" height="712" rx="10" fill="#171717"/>
<rect x="84" y="107" width="111" height="111" rx="55.5" fill="#242424"/>
<rect x="215" y="107" width="111" height="111" rx="55.5" fill="#242424"/>
<rect x="347" y="107" width="111" height="111" rx="55.5" fill="#242424"/>
<rect x="478" y="107" width="111" height="111" rx="55.5" fill="#242424"/>
<rect x="84" y="236" width="111" height="111" rx="55.5" fill="#242424"/>
<rect x="215" y="236" width="111" height="111" rx="55.5" fill="#242424"/>
<rect x="347" y="236" width="111" height="111" rx="55.5" fill="#242424"/>
<rect x="478" y="236" width="111" height="111" rx="55.5" fill="#242424"/>
<rect x="84" y="365" width="111" height="111" rx="55.5" fill="#242424"/>
<rect x="215" y="365" width="111" height="111" rx="55.5" fill="#242424"/>
<rect x="347" y="365" width="111" height="111" rx="55.5" fill="#242424"/>
<rect x="478" y="365" width="111" height="111" rx="55.5" fill="#242424"/>
<rect x="84" y="495" width="111" height="110" rx="55" fill="#242424"/>
<rect x="215" y="495" width="111" height="110" rx="55" fill="#242424"/>
<rect x="347" y="495" width="111" height="110" rx="55" fill="#242424"/>
<rect x="478" y="495" width="111" height="110" rx="55" fill="#242424"/>
</svg>
