<svg width="33" height="32" viewBox="0 0 33 32" fill="none" xmlns="http://www.w3.org/2000/svg">
    <rect x="1.07996" y="0.5" width="31" height="31" rx="15.5" fill="#18181B" />
    <rect x="1.07996" y="0.5" width="31" height="31" rx="15.5" stroke="#484851" />
    <path d="M22.7263 19.8961C21.3097 19.2563 21.2558 16.5104 21.2548 16.4411V14.5989C21.2548 12.8259 20.1713 11.3013 18.6317 10.6521C18.6284 9.74056 17.886 9 16.9738 9C16.0615 9 15.3191 9.7406 15.3158 10.6521C13.7762 11.3012 12.6928 12.8258 12.6928 14.5989V16.4411C12.6918 16.5104 12.6378 19.2563 11.2212 19.896C11.0598 19.9689 10.9712 20.1446 11.0085 20.3177C11.0457 20.4908 11.1988 20.6145 11.3759 20.6145H14.9672C15.0408 21.0195 15.2323 21.3963 15.5252 21.7014C15.9142 22.1067 16.4287 22.33 16.9737 22.33C17.5188 22.33 18.0332 22.1067 18.4222 21.7014C18.7151 21.3962 18.9066 21.0195 18.9802 20.6145H22.5715C22.7486 20.6145 22.9016 20.4909 22.9389 20.3177C22.9763 20.1446 22.8877 19.969 22.7263 19.8961ZM20.8602 18.5806C21.0091 19.0321 21.22 19.4855 21.519 19.8628H12.4285C12.7274 19.4855 12.9383 19.0321 13.0872 18.5806H20.8602ZM16.9738 9.75177C17.3864 9.75177 17.7353 10.029 17.8445 10.407C17.5632 10.3487 17.272 10.3179 16.9738 10.3179C16.6755 10.3179 16.3843 10.3486 16.1031 10.407C16.2123 10.0291 16.5611 9.75177 16.9738 9.75177ZM13.4446 16.4434V14.5988C13.4446 12.6529 15.0277 11.0697 16.9738 11.0697C18.9198 11.0697 20.503 12.6529 20.503 14.5988V16.4465C20.5035 16.503 20.5123 17.0972 20.662 17.8288H13.2854C13.4353 17.0966 13.4441 16.5013 13.4446 16.4434ZM16.9738 21.5782C16.4 21.5782 15.8993 21.1646 15.7386 20.6145H18.2089C18.0482 21.1646 17.5475 21.5782 16.9738 21.5782Z" fill="#F4F4F5" />
    <path d="M16.9737 11.597C15.3565 11.597 14.0408 12.9127 14.0408 14.53C14.0408 14.7376 14.2091 14.9059 14.4167 14.9059C14.6243 14.9059 14.7926 14.7376 14.7926 14.53C14.7926 13.3273 15.771 12.3488 16.9738 12.3488C17.1814 12.3488 17.3497 12.1805 17.3497 11.9729C17.3496 11.7653 17.1813 11.597 16.9737 11.597Z" fill="#F4F4F5" />
    <path d="M22.7263 19.8961C21.3097 19.2563 21.2558 16.5104 21.2548 16.4411V14.5989C21.2548 12.8259 20.1713 11.3013 18.6317 10.6521C18.6284 9.74056 17.886 9 16.9738 9C16.0615 9 15.3191 9.7406 15.3158 10.6521C13.7762 11.3012 12.6928 12.8258 12.6928 14.5989V16.4411C12.6918 16.5104 12.6378 19.2563 11.2212 19.896C11.0598 19.9689 10.9712 20.1446 11.0085 20.3177C11.0457 20.4908 11.1988 20.6145 11.3759 20.6145H14.9672C15.0408 21.0195 15.2323 21.3963 15.5252 21.7014C15.9142 22.1067 16.4287 22.33 16.9737 22.33C17.5188 22.33 18.0332 22.1067 18.4222 21.7014C18.7151 21.3962 18.9066 21.0195 18.9802 20.6145H22.5715C22.7486 20.6145 22.9016 20.4909 22.9389 20.3177C22.9763 20.1446 22.8877 19.969 22.7263 19.8961ZM20.8602 18.5806C21.0091 19.0321 21.22 19.4855 21.519 19.8628H12.4285C12.7274 19.4855 12.9383 19.0321 13.0872 18.5806H20.8602ZM16.9738 9.75177C17.3864 9.75177 17.7353 10.029 17.8445 10.407C17.5632 10.3487 17.272 10.3179 16.9738 10.3179C16.6755 10.3179 16.3843 10.3486 16.1031 10.407C16.2123 10.0291 16.5611 9.75177 16.9738 9.75177ZM13.4446 16.4434V14.5988C13.4446 12.6529 15.0277 11.0697 16.9738 11.0697C18.9198 11.0697 20.503 12.6529 20.503 14.5988V16.4465C20.5035 16.503 20.5123 17.0972 20.662 17.8288H13.2854C13.4353 17.0966 13.4441 16.5013 13.4446 16.4434ZM16.9738 21.5782C16.4 21.5782 15.8993 21.1646 15.7386 20.6145H18.2089C18.0482 21.1646 17.5475 21.5782 16.9738 21.5782Z" fill="#F4F4F5" />
    <path d="M16.9737 11.597C15.3565 11.597 14.0408 12.9127 14.0408 14.53C14.0408 14.7376 14.2091 14.9059 14.4167 14.9059C14.6243 14.9059 14.7926 14.7376 14.7926 14.53C14.7926 13.3273 15.771 12.3488 16.9738 12.3488C17.1814 12.3488 17.3497 12.1805 17.3497 11.9729C17.3496 11.7653 17.1813 11.597 16.9737 11.597Z" fill="#F4F4F5" />
</svg>