<svg width="42" height="42" viewBox="0 0 42 42" fill="none" xmlns="http://www.w3.org/2000/svg">
    <rect width="42" height="42" rx="21" fill="#525252"/>
    <path d="M28.3332 29.25V27.4167C28.3332 26.4442 27.9469 25.5116 27.2592 24.8239C26.5716 24.1363 25.639 23.75 24.6665 23.75H17.3332C16.3607 23.75 15.4281 24.1363 14.7404 24.8239C14.0528 25.5116 13.6665 26.4442 13.6665 27.4167V29.25" stroke="white" stroke-width="1.925" stroke-linecap="round" stroke-linejoin="round"/>
    <path d="M21.0002 20.0833C23.0252 20.0833 24.6668 18.4417 24.6668 16.4167C24.6668 14.3916 23.0252 12.75 21.0002 12.75C18.9751 12.75 17.3335 14.3916 17.3335 16.4167C17.3335 18.4417 18.9751 20.0833 21.0002 20.0833Z" stroke="white" stroke-width="1.925" stroke-linecap="round" stroke-linejoin="round"/>
</svg>
