<svg width="142" height="20" viewBox="0 0 142 20" fill="none" xmlns="http://www.w3.org/2000/svg">
    <path d="M40.6673 6C39.59 6 38.8401 6.67976 38.5659 7.84504H38.5155V6.19422H36V15.665H38.5155V10.3641C38.5155 8.98463 39.2375 8.2249 40.4771 8.2249C40.8408 8.2249 41.185 8.27917 41.3921 8.36771V6.09711C41.2018 6.04285 40.9416 6 40.6673 6Z" fill="#F4F4F5" />
    <path d="M34.228 8.37268V6.43054H32.541V4L30 4.78828V13.2508C30 15.2815 30.966 16.0956 33.014 16.0956C33.54 16.0956 33.946 16.0413 34.228 15.9984V14.1077C34.074 14.1249 33.912 14.1505 33.688 14.1505C32.93 14.1505 32.541 13.8506 32.541 12.9682V8.37268H34.228Z" fill="#F4F4F5" />
    <path d="M65.232 6.20205V4H57V16.7497H65.232V14.5476H59.599V11.3431H64.913V9.25808H59.599V6.20205H65.232Z" fill="#F4F4F5" />
    <path d="M72.384 7C70.988 7 70.042 7.66262 69.566 8.74794H69.516V7.19422H67V16.665H69.516V11.2213C69.516 9.98463 70.229 9.13637 71.36 9.13637C72.49 9.13637 73.055 9.84468 73.055 11.0813V16.665H75.571V10.5501C75.571 8.3338 74.415 7 72.384 7Z" fill="#F4F4F5" />
    <path d="M83.648 4V8.92106H83.595C83.097 7.77291 82.065 7.08459 80.755 7.08459C78.43 7.08459 77 8.92106 77 12.0057V12.0143C77 15.0874 78.43 16.9439 80.755 16.9439C82.09 16.9439 83.106 16.2527 83.595 15.1331H83.648V16.7497H86.164V4H83.648ZM83.657 12.0143C83.657 13.7279 82.82 14.8047 81.597 14.8047C80.375 14.8047 79.558 13.7365 79.558 12.0143V12.0057C79.558 10.272 80.349 9.22095 81.597 9.22095C82.845 9.22095 83.657 10.3005 83.657 12.0057V12.0143Z" fill="#F4F4F5" />
    <path d="M52.7936 11.9993L56.059 8.66614L49.5281 2L43 8.66614L46.2654 11.9993L49.5281 8.66614L52.7936 11.9993Z" fill="#948CF9" />
</svg>