<svg width="1257" height="665" viewBox="0 0 1257 665" fill="none" xmlns="http://www.w3.org/2000/svg">
    <path d="M28 26.3926C28 11.9578 39.7522 1 53.2601 1H1217.49C1230.99 1 1242.75 11.9578 1242.75 26.3926V265.594C1242.75 272.254 1236.19 278.155 1227.56 281.19C1205.58 288.925 1190.22 309.458 1190.22 333.22C1190.22 356.983 1205.58 377.516 1227.56 385.251C1236.19 388.286 1242.75 394.186 1242.75 400.846V638.608C1242.75 653.042 1230.99 664 1217.49 664H53.2601C39.7522 664 28 653.042 28 638.608V400.846C28 394.186 34.5621 388.286 43.187 385.251C65.1637 377.516 80.5215 356.983 80.5215 333.22C80.5215 309.458 65.1637 288.925 43.187 281.19C34.5621 278.155 28 272.254 28 265.594V26.3926Z" fill="#18181B" stroke="url(#paint0_linear_0_1)"/>
    <rect y="315" width="42" height="42" rx="21" fill="#525252"/>
    <path d="M28.3333 344.25V342.417C28.3333 341.444 27.947 340.512 27.2594 339.824C26.5718 339.136 25.6391 338.75 24.6667 338.75H17.3333C16.3609 338.75 15.4282 339.136 14.7406 339.824C14.053 340.512 13.6667 341.444 13.6667 342.417V344.25" stroke="white" stroke-width="1.925" stroke-linecap="round" stroke-linejoin="round"/>
    <path d="M21 335.083L24.6667 331.417C24.6667 331.417 23.025 327.75 21 327.75C18.975 327.75 17.3333 329.392 17.3333 331.417C17.3333 333.442 18.975 335.083 21 335.083Z" stroke="white" stroke-width="1.925" stroke-linecap="round" stroke-linejoin="round"/>
    <rect x="1215" y="314" width="42" height="42" rx="21" fill="#525252"/>
    <path d="M1243.33 343.25V341.417C1243.33 340.444 1242.95 339.512 1242.26 338.824C1241.57 338.136 1240.64 337.75 1239.67 337.75H1232.33C1231.36 337.75 1230.43 338.136 1229.74 338.824C1229.05 339.512 1228.67 340.444 1228.67 341.417V343.25" stroke="white" stroke-width="1.925" stroke-linecap="round" stroke-linejoin="round"/>
    <path d="M1236 334.083C1238.03 334.083 1239.67 332.442 1239.67 330.417C1239.67 328.392 1238.03 326.75 1236 326.75C1233.97 326.75 1232.33 328.392 1232.33 330.417C1232.33 332.442 1233.97 334.083 1236 334.083Z" stroke="white" stroke-width="1.925" stroke-linecap="round" stroke-linejoin="round"/>
    <rect x="107" y="240" width="13" height="197" rx="6.5" fill="#F59E0B"/>
    <rect x="1144" y="236" width="13" height="197" rx="6.5" fill="#3E3ECA"/>
    <defs>
    <linearGradient id="paint0_linear_0_1" x1="48.4681" y1="358.449" x2="1129" y2="6.67355" gradientUnits="userSpaceOnUse">
    <stop stop-color="#3E3ECA"/>
    <stop offset="0.520167" stop-color="#DCC0FF"/>
    <stop offset="1" stop-color="#F59E0B"/>
    </linearGradient>
    </defs>
</svg>
