<svg width="38" height="36" viewBox="0 0 32 32" fill="none" xmlns="http://www.w3.org/2000/svg">
    <rect x="0.5" y="0.5" width="31" height="31" rx="15.5" fill="#18181B"/>
    <rect x="0.5" y="0.5" width="31" height="31" rx="15.5" stroke="#484851"/>
    <path d="M22.2155 14.9366H21.1884C21.0796 14.5988 20.9314 14.2733 20.7457 13.9645L21.472 13.3039C21.7511 13.0501 21.7511 12.6386 21.472 12.3848L20.3081 11.3262C20.029 11.0724 19.5766 11.0724 19.2976 11.3262L18.5713 11.9868C18.2318 11.8179 17.8739 11.683 17.5026 11.5841V10.65C17.5026 10.291 17.1826 10 16.788 10H15.1421C14.7474 10 14.4275 10.291 14.4275 10.65V11.5841C14.0561 11.683 13.6982 11.8179 13.3588 11.9868L12.6325 11.3262C12.3534 11.0724 11.901 11.0724 11.622 11.3262L10.4581 12.3848C10.179 12.6385 10.179 13.0501 10.4581 13.3039L11.1844 13.9645C10.9987 14.2733 10.8504 14.5988 10.7417 14.9365H9.7146C9.31993 14.9366 9 15.2276 9 15.5865V17.0835C9 17.4425 9.31993 17.7335 9.7146 17.7335H10.7417C10.8504 18.0712 10.9987 18.3968 11.1844 18.7055L10.4581 19.3661C10.179 19.6199 10.179 20.0315 10.4581 20.2853L11.6219 21.3438C11.901 21.5976 12.3534 21.5976 12.6325 21.3438L13.3587 20.6832C13.6982 20.8521 14.0561 20.987 14.4275 21.0859V22.02C14.4275 22.379 14.7474 22.67 15.1421 22.67H16.7879C17.1826 22.67 17.5025 22.379 17.5025 22.02V21.0859C17.8739 20.987 18.2318 20.8521 18.5713 20.6832L19.2975 21.3438C19.5766 21.5976 20.029 21.5976 20.3081 21.3438L21.4719 20.2852C21.751 20.0314 21.751 19.6199 21.4719 19.3661L20.7456 18.7055C20.9313 18.3967 21.0796 18.0712 21.1883 17.7334H22.2154C22.6101 17.7334 22.93 17.4424 22.93 17.0835V15.5865C22.9301 15.2276 22.6101 14.9366 22.2155 14.9366ZM15.965 12.1581C16.2171 12.1581 16.4214 12.3439 16.4214 12.5732C16.4214 12.8025 16.2171 12.9884 15.965 12.9884C15.7129 12.9884 15.5086 12.8025 15.5086 12.5732C15.5086 12.3439 15.713 12.1581 15.965 12.1581ZM12.7178 13.3815C12.896 13.2193 13.185 13.2193 13.3632 13.3815C13.5415 13.5436 13.5415 13.8064 13.3632 13.9685C13.1849 14.1307 12.896 14.1307 12.7178 13.9685C12.5395 13.8064 12.5395 13.5436 12.7178 13.3815ZM11.8291 16.7501C11.5771 16.7501 11.3727 16.5643 11.3727 16.335C11.3727 16.1057 11.5771 15.9199 11.8291 15.9199C12.0812 15.9199 12.2855 16.1057 12.2855 16.335C12.2855 16.5643 12.0812 16.7501 11.8291 16.7501ZM13.3632 19.2885C13.185 19.4507 12.896 19.4507 12.7178 19.2885C12.5395 19.1264 12.5395 18.8636 12.7178 18.7015C12.8961 18.5394 13.185 18.5394 13.3632 18.7015C13.5415 18.8636 13.5415 19.1264 13.3632 19.2885ZM15.965 20.512C15.713 20.5119 15.5086 20.3261 15.5086 20.0968C15.5086 19.8675 15.713 19.6817 15.965 19.6817C16.2171 19.6817 16.4214 19.8675 16.4214 20.0968C16.4214 20.3261 16.2171 20.512 15.965 20.512ZM15.965 18.9081C14.4015 18.9081 13.136 17.7573 13.136 16.335C13.136 14.9129 14.4013 13.7619 15.965 13.7619C17.5285 13.7619 18.7941 14.9127 18.7941 16.335C18.794 17.7571 17.5288 18.9081 15.965 18.9081ZM19.2123 19.2885C19.034 19.4506 18.7451 19.4506 18.5668 19.2885C18.3886 19.1264 18.3886 18.8636 18.5668 18.7015C18.7451 18.5394 19.034 18.5394 19.2123 18.7015C19.3905 18.8636 19.3905 19.1265 19.2123 19.2885ZM19.2123 13.9685C19.034 14.1307 18.7451 14.1307 18.5668 13.9685C18.3886 13.8064 18.3886 13.5436 18.5668 13.3815C18.7451 13.2193 19.034 13.2193 19.2123 13.3815C19.3905 13.5436 19.3905 13.8064 19.2123 13.9685ZM20.1009 16.7501C19.8488 16.7501 19.6445 16.5643 19.6445 16.335C19.6445 16.1057 19.8489 15.9199 20.1009 15.9199C20.353 15.9199 20.5573 16.1057 20.5573 16.335C20.5573 16.5643 20.353 16.7501 20.1009 16.7501Z" fill="white"/>
</svg>
